<?xml version="1.0" encoding="utf-8"?>
<!-- Svg Vector Icons : http://www.onlinewebfonts.com/icon -->
<!DOCTYPE svg PUBLIC "-//W3C//DTD SVG 1.1//EN" "http://www.w3.org/Graphics/SVG/1.1/DTD/svg11.dtd">
<svg version="1.1" xmlns="http://www.w3.org/2000/svg" xmlns:xlink="http://www.w3.org/1999/xlink" x="0px" y="0px" viewBox="0 0 256 256" enable-background="new 0 0 256 256" xml:space="preserve">
<metadata> Svg Vector Icons : http://www.onlinewebfonts.com/icon </metadata>
<g><g><g><path fill="#000000" d="M125.7,10.8c-3.3,0.8-6.9,2.6-10,4.9c-2.5,1.9-6.2,6.5-7.3,9c-0.6,1.3-0.9,1.5-1.7,1.3c-4.9-1.4-6.8-1.7-10.1-1.7c-7.4,0-13.1,2.4-18.6,7.9c-10.3,10.2-10.3,26.3,0,36.7c2.4,2.4,4.3,3.9,7,5.2l3.7,1.8v13.8v13.7l43.2-0.1L175,103l0.2-13.7l0.2-13.7L179,74c8.9-4.5,14.4-13.3,14.5-23.3c0.1-12-7.9-22.7-19.4-25.7c-4-1-10.4-1-14.1,0.2c-1.6,0.5-3.1,1-3.3,1s-1-1.3-1.9-2.9c-0.9-1.8-2.9-4.1-4.9-6C143.3,11,134.3,8.6,125.7,10.8z"/><path fill="#000000" d="M89,111.2c-0.7,0.6-0.3,8.2,0.4,10c1,2.4,2.9,4.3,4.9,4.9c1,0.3,15.5,0.5,37.9,0.5h36.2l2.1-1.1c3.7-1.9,5-5.2,4.7-11.8l-0.1-2.6l-42.9-0.1C108.6,110.9,89.1,111,89,111.2z"/><path fill="#000000" d="M87.2,138.6c-2.8,1-3.9,2-16.7,14.9c-11.4,11.5-12.3,12.5-13,14.8c-1,3.2-1,4,0,7.2c0.7,2.4,1.6,3.4,15.3,17.3c16,16.1,17.1,16.9,22,16.9c3.8,0,6.2-1.3,10.8-5.8l4-3.9l5.7,5.7c3.1,3.1,5.6,5.9,5.6,6.3c-0.1,0.3-4.9,4.9-10.8,10.1c-5.9,5.3-11,10.1-11.3,10.8c-1.1,2.1-0.3,3.9,4.1,8.4c4.3,4.4,6.1,5.3,8.4,4.3c0.6-0.3,5.5-5.3,10.8-11.3c7.7-8.5,9.8-10.6,10.2-10.1c0.3,0.3,4.5,5,9.2,10.4c4.8,5.4,9.2,10.1,9.9,10.6c2.8,1.8,4.6,1,9.8-4.3c3.4-3.6,3.7-3.9,3.7-5.9c0-2.4-0.2-2.7-14.2-15.1l-8.8-7.8l6.3-6.3l6.3-6.3l2,0.9c8.3,3.6,18.2,3,26.7-1.7c4.7-2.6,9.9-8,12.5-12.9c2.7-5.2,3.6-9,3.6-14.5c0-9-3.6-16.4-10.5-21.3c-4.5-3.2-8.3-4.5-14.4-4.8c-6-0.2-9.4,0.5-15.2,3.3c-5.7,2.8-11.4,8.6-14.2,14.3c-4,8.4-4.4,17-1,24.8l1,2.4l-5.9,5.9c-3.2,3.2-6.2,6.1-6.8,6.4c-0.8,0.4-1.7-0.4-7-5.6l-6.1-6.1l3.7-3.9c4.7-4.8,5.8-6.9,5.8-10.8c0-5.2-0.6-5.9-15.8-21.2c-7.7-7.7-14.8-14.5-15.9-15.2C94.4,138.1,89.8,137.7,87.2,138.6z M92.6,148.5c9.6,4.8,25.4,22.6,23.8,26.8c-0.8,2-5.7-0.1-11.5-4.8c-9.4-7.5-18.7-19.9-16.7-22.3C89,147.2,90.2,147.3,92.6,148.5z M83.3,159.9c9.4,5.7,22.5,20.4,22.5,25.3c0,6.8-20.8-9.8-27.2-21.6C75.7,158.4,77.9,156.7,83.3,159.9z M71.4,170.1c7.5,3.8,19.9,16.4,22.9,23.3c1.9,4.1,0.2,5.2-4.4,3c-9.7-4.9-25.8-23.4-23.2-26.6C67.6,168.6,68.8,168.7,71.4,170.1z M113.8,228.7c1.5,0.9,2.9,3.4,2.9,5c0,2-1.4,4.6-3,5.6c-3.1,1.9-7.5,0.6-9-2.6c-1-2-1-3.2-0.1-5.2C106.1,227.9,110.3,226.5,113.8,228.7z M155.3,228.2c4.7,1.9,5.5,7.4,1.5,10.8c-2.9,2.4-7.6,1.3-9.4-2.1c-1.7-3.3,0.2-7.9,3.9-8.9C153.2,227.3,153.1,227.3,155.3,228.2z"/></g></g></g>
</svg>