<?xml version="1.0" encoding="utf-8"?>
<!-- Svg Vector Icons : http://www.onlinewebfonts.com/icon -->
<!DOCTYPE svg PUBLIC "-//W3C//DTD SVG 1.1//EN" "http://www.w3.org/Graphics/SVG/1.1/DTD/svg11.dtd">
<svg version="1.1" xmlns="http://www.w3.org/2000/svg" xmlns:xlink="http://www.w3.org/1999/xlink" x="0px" y="0px" viewBox="0 0 256 256" enable-background="new 0 0 256 256" xml:space="preserve">
<metadata> Svg Vector Icons : http://www.onlinewebfonts.com/icon </metadata>
<g><g><g><path fill="#000000" d="M149.5,22.7c-1.5,0.5-3,1.5-4.7,3.1c-2.9,3-4.1,6.3-3.7,10.2c0.2,2.3,2.1,6.8,3.1,7.4c0.8,0.5,0.5,1.2-0.7,1.2c-0.6,0-3.2,0.4-5.6,1C107.5,52,84,76.4,77.4,108.1c-1,4.9-1.2,7.1-1.2,14.3l0,8.5h6.9h6.9l0.6-5.8c3-29.8,14.1-51.4,33.6-65c3.9-2.8,12.2-7.3,15.2-8.4c1-0.4,3-1.1,4.3-1.7c1.3-0.5,2.4-0.9,2.4-0.8c0,0.1-1.8,1.5-4,3.2c-10.9,8-20.1,17.5-25.9,26.6c-4.2,6.7-8.3,16.8-10.6,26c-2.2,8.9-4.5,25.5-3.5,25.9c0.3,0.1,29.5,0.1,65,0.1l64.5-0.1l0.1-4.8c0.5-16.6-4.4-33.4-14.1-47.9C210.8,68,198.8,57.4,188,51.9c-7-3.5-19.4-7.4-23.6-7.4c-0.7,0-1.3-0.1-1.3-0.2c0-0.1,0.6-1.2,1.3-2.3c3.4-5.3,2.9-11.3-1.3-16C160.1,22.6,154.2,21.1,149.5,22.7z"/><path fill="#000000" d="M61.6,143.8v8.1h92.2H246v-8.1v-8.1h-92.2H61.6V143.8z"/><path fill="#000000" d="M92.3,158.8l-18.4,0.8l-13.4,4.8c-13.2,4.8-13.4,4.9-13.3,6.1c0.1,1.7,6.6,43.1,6.9,43.9c0.1,0.4,0.7-0.1,1.6-1.4c2-2.8,4.1-4.9,5.9-6.1l1.6-1h31.6h31.7l4.7-2.4c2.6-1.3,8.3-4.7,12.6-7.3c10.9-6.8,34.6-22.5,35.6-23.7c3.2-3.4-0.1-10.1-4.9-10.1c-0.9,0-4,1-7,2.3c-7.2,3-18.5,7.4-30,11.7l-9.5,3.5l-16.8-1.1c-9.3-0.6-17.8-1.1-19.1-1.1c-1.2,0-2.2-0.1-2-0.3c0.4-0.3,6.3-2,19.3-5.3c12-3,14-3.7,15-5.3c1.5-2.3,0.6-6.6-1.8-8.2C121.3,157.7,117.5,157.7,92.3,158.8z"/><path fill="#000000" d="M25,171.7l-14.8,2.6l-0.1,29.8L10,233.9l1.2-0.3c0.7-0.1,10.1-1.8,20.8-3.9c10.7-2,19.6-3.7,19.7-3.8c0.1-0.1-2.1-13-5-28.6c-4.8-26.5-5.3-28.4-6.1-28.3C40.1,169,33.1,170.2,25,171.7z"/></g></g></g>
</svg>